# Blender 4.1.1
# www.blender.org
mtllib flattorus.mtl
o Torus
v 0.783494 -0.023931 0.000000
v 0.875000 -0.041450 0.000000
v 1.000000 -0.047862 0.000000
v 1.125000 -0.041450 0.000000
v 1.216506 -0.023931 0.000000
v 0.776791 -0.023931 -0.102266
v 0.867514 -0.041450 -0.114210
v 0.991445 -0.047862 -0.130526
v 1.115376 -0.041450 -0.146842
v 1.206099 -0.023931 -0.158786
v 0.756797 -0.023931 -0.202783
v 0.845185 -0.041450 -0.226467
v 0.965926 -0.047862 -0.258819
v 1.086667 -0.041450 -0.291171
v 1.175055 -0.023931 -0.314855
v 0.723854 -0.023931 -0.299830
v 0.808395 -0.041450 -0.334848
v 0.923880 -0.047862 -0.382683
v 1.039364 -0.041450 -0.430519
v 1.123905 -0.023931 -0.465537
v 0.678525 -0.023931 -0.391747
v 0.757772 -0.041450 -0.437500
v 0.866025 -0.047862 -0.500000
v 0.974279 -0.041450 -0.562500
v 1.053525 -0.023931 -0.608253
v 0.621587 -0.023931 -0.476961
v 0.694184 -0.041450 -0.532666
v 0.793353 -0.047862 -0.608761
v 0.892523 -0.041450 -0.684856
v 0.965119 -0.023931 -0.740562
v 0.554014 -0.023931 -0.554014
v 0.618718 -0.041450 -0.618719
v 0.707107 -0.047862 -0.707107
v 0.795495 -0.041450 -0.795495
v 0.860200 -0.023931 -0.860200
v 0.476961 -0.023931 -0.621587
v 0.532666 -0.041450 -0.694184
v 0.608762 -0.047862 -0.793353
v 0.684857 -0.041450 -0.892522
v 0.740562 -0.023931 -0.965119
v 0.391747 -0.023931 -0.678525
v 0.437500 -0.041450 -0.757772
v 0.500000 -0.047862 -0.866025
v 0.562500 -0.041450 -0.974279
v 0.608253 -0.023931 -1.053525
v 0.299830 -0.023931 -0.723854
v 0.334848 -0.041450 -0.808394
v 0.382684 -0.047862 -0.923879
v 0.430519 -0.041450 -1.039364
v 0.465537 -0.023931 -1.123905
v 0.202783 -0.023931 -0.756797
v 0.226467 -0.041450 -0.845185
v 0.258819 -0.047862 -0.965926
v 0.291171 -0.041450 -1.086667
v 0.314855 -0.023931 -1.175055
v 0.102266 -0.023931 -0.776791
v 0.114210 -0.041450 -0.867514
v 0.130526 -0.047862 -0.991445
v 0.146842 -0.041450 -1.115376
v 0.158786 -0.023931 -1.206099
v 0.000000 -0.023931 -0.783494
v 0.000000 -0.041450 -0.875000
v 0.000000 -0.047862 -1.000000
v 0.000000 -0.041450 -1.125000
v 0.000000 -0.023931 -1.216506
v -0.102267 -0.023931 -0.776791
v -0.114211 -0.041450 -0.867514
v -0.130526 -0.047862 -0.991445
v -0.146842 -0.041450 -1.115375
v -0.158786 -0.023931 -1.206099
v -0.202783 -0.023931 -0.756797
v -0.226467 -0.041450 -0.845185
v -0.258819 -0.047862 -0.965926
v -0.291171 -0.041450 -1.086667
v -0.314855 -0.023931 -1.175055
v -0.299830 -0.023931 -0.723854
v -0.334848 -0.041450 -0.808395
v -0.382684 -0.047862 -0.923880
v -0.430519 -0.041450 -1.039364
v -0.465537 -0.023931 -1.123905
v -0.391747 -0.023931 -0.678525
v -0.437500 -0.041450 -0.757772
v -0.500000 -0.047862 -0.866026
v -0.562500 -0.041450 -0.974279
v -0.608253 -0.023931 -1.053526
v -0.476961 -0.023931 -0.621587
v -0.532666 -0.041450 -0.694184
v -0.608761 -0.047862 -0.793353
v -0.684857 -0.041450 -0.892522
v -0.740562 -0.023931 -0.965119
v -0.554014 -0.023931 -0.554013
v -0.618719 -0.041450 -0.618718
v -0.707107 -0.047862 -0.707107
v -0.795495 -0.041450 -0.795495
v -0.860200 -0.023931 -0.860200
v -0.621587 -0.023931 -0.476961
v -0.694184 -0.041450 -0.532666
v -0.793353 -0.047862 -0.608761
v -0.892522 -0.041450 -0.684857
v -0.965119 -0.023931 -0.740562
v -0.678525 -0.023931 -0.391747
v -0.757772 -0.041450 -0.437500
v -0.866025 -0.047862 -0.500000
v -0.974278 -0.041450 -0.562500
v -1.053525 -0.023931 -0.608253
v -0.723854 -0.023931 -0.299830
v -0.808395 -0.041450 -0.334848
v -0.923880 -0.047862 -0.382683
v -1.039364 -0.041450 -0.430519
v -1.123905 -0.023931 -0.465537
v -0.756797 -0.023931 -0.202783
v -0.845185 -0.041450 -0.226467
v -0.965926 -0.047862 -0.258819
v -1.086667 -0.041450 -0.291171
v -1.175055 -0.023931 -0.314855
v -0.776791 -0.023931 -0.102267
v -0.867514 -0.041450 -0.114211
v -0.991445 -0.047862 -0.130526
v -1.115375 -0.041450 -0.146842
v -1.206099 -0.023931 -0.158786
v -0.783494 -0.023931 -0.000000
v -0.875000 -0.041450 -0.000000
v -1.000000 -0.047862 -0.000000
v -1.125000 -0.041450 -0.000000
v -1.216506 -0.023931 -0.000000
v -0.776791 -0.023931 0.102267
v -0.867514 -0.041450 0.114211
v -0.991445 -0.047862 0.130526
v -1.115375 -0.041450 0.146842
v -1.206099 -0.023931 0.158786
v -0.756797 -0.023931 0.202783
v -0.845185 -0.041450 0.226467
v -0.965926 -0.047862 0.258819
v -1.086667 -0.041450 0.291171
v -1.175055 -0.023931 0.314855
v -0.723854 -0.023931 0.299830
v -0.808395 -0.041450 0.334848
v -0.923880 -0.047862 0.382683
v -1.039365 -0.041450 0.430518
v -1.123906 -0.023931 0.465536
v -0.678525 -0.023931 0.391747
v -0.757772 -0.041450 0.437500
v -0.866026 -0.047862 0.500000
v -0.974279 -0.041450 0.562500
v -1.053526 -0.023931 0.608253
v -0.621587 -0.023931 0.476961
v -0.694184 -0.041450 0.532666
v -0.793353 -0.047862 0.608761
v -0.892522 -0.041450 0.684857
v -0.965119 -0.023931 0.740562
v -0.554014 -0.023931 0.554013
v -0.618719 -0.041450 0.618718
v -0.707107 -0.047862 0.707107
v -0.795495 -0.041450 0.795495
v -0.860200 -0.023931 0.860200
v -0.476961 -0.023931 0.621587
v -0.532667 -0.041450 0.694184
v -0.608762 -0.047862 0.793353
v -0.684857 -0.041450 0.892522
v -0.740563 -0.023931 0.965119
v -0.391747 -0.023931 0.678525
v -0.437500 -0.041450 0.757772
v -0.500000 -0.047862 0.866026
v -0.562500 -0.041450 0.974279
v -0.608253 -0.023931 1.053526
v -0.299830 -0.023931 0.723854
v -0.334848 -0.041450 0.808395
v -0.382684 -0.047862 0.923880
v -0.430519 -0.041450 1.039364
v -0.465537 -0.023931 1.123905
v -0.202783 -0.023931 0.756797
v -0.226467 -0.041450 0.845185
v -0.258819 -0.047862 0.965926
v -0.291172 -0.041450 1.086666
v -0.314855 -0.023931 1.175055
v -0.102267 -0.023931 0.776791
v -0.114211 -0.041450 0.867514
v -0.130527 -0.047862 0.991445
v -0.146843 -0.041450 1.115375
v -0.158787 -0.023931 1.206099
v 0.000000 -0.023931 0.783494
v 0.000000 -0.041450 0.875000
v 0.000000 -0.047862 1.000000
v 0.000000 -0.041450 1.125000
v 0.000000 -0.023931 1.216506
v 0.102266 -0.023931 0.776791
v 0.114210 -0.041450 0.867514
v 0.130526 -0.047862 0.991445
v 0.146842 -0.041450 1.115376
v 0.158786 -0.023931 1.206099
v 0.202783 -0.023931 0.756797
v 0.226466 -0.041450 0.845185
v 0.258819 -0.047862 0.965926
v 0.291171 -0.041450 1.086667
v 0.314854 -0.023931 1.175055
v 0.299830 -0.023931 0.723854
v 0.334848 -0.041450 0.808394
v 0.382684 -0.047862 0.923879
v 0.430519 -0.041450 1.039364
v 0.465537 -0.023931 1.123905
v 0.391747 -0.023931 0.678525
v 0.437500 -0.041450 0.757772
v 0.500000 -0.047862 0.866025
v 0.562500 -0.041450 0.974279
v 0.608253 -0.023931 1.053525
v 0.476961 -0.023931 0.621587
v 0.532666 -0.041450 0.694184
v 0.608761 -0.047862 0.793353
v 0.684856 -0.041450 0.892523
v 0.740562 -0.023931 0.965120
v 0.554013 -0.023931 0.554014
v 0.618718 -0.041450 0.618719
v 0.707106 -0.047862 0.707107
v 0.795495 -0.041450 0.795496
v 0.860199 -0.023931 0.860200
v 0.621587 -0.023931 0.476961
v 0.694184 -0.041450 0.532666
v 0.793353 -0.047862 0.608761
v 0.892523 -0.041450 0.684856
v 0.965119 -0.023931 0.740562
v 0.678525 -0.023931 0.391747
v 0.757772 -0.041450 0.437500
v 0.866025 -0.047862 0.500000
v 0.974279 -0.041450 0.562500
v 1.053525 -0.023931 0.608253
v 0.723854 -0.023931 0.299830
v 0.808394 -0.041450 0.334848
v 0.923879 -0.047862 0.382684
v 1.039364 -0.041450 0.430519
v 1.123905 -0.023931 0.465537
v 0.756797 -0.023931 0.202783
v 0.845185 -0.041450 0.226466
v 0.965926 -0.047862 0.258819
v 1.086667 -0.041450 0.291171
v 1.175055 -0.023931 0.314855
v 0.776791 -0.023931 0.102266
v 0.867514 -0.041450 0.114210
v 0.991445 -0.047862 0.130526
v 1.115376 -0.041450 0.146842
v 1.206099 -0.023931 0.158786
vn -0.1880 -0.9821 0.0123
vn -0.0512 -0.9987 0.0034
vn 0.0512 -0.9987 -0.0034
vn 0.1880 -0.9821 -0.0123
vn -0.1848 -0.9821 0.0368
vn -0.0504 -0.9987 0.0100
vn 0.0504 -0.9987 -0.0100
vn 0.1848 -0.9821 -0.0368
vn -0.1784 -0.9821 0.0606
vn -0.0486 -0.9987 0.0165
vn 0.0486 -0.9987 -0.0165
vn 0.1784 -0.9821 -0.0606
vn -0.1690 -0.9821 0.0833
vn -0.0460 -0.9987 0.0227
vn 0.0460 -0.9987 -0.0227
vn 0.1690 -0.9821 -0.0833
vn -0.1567 -0.9821 0.1047
vn -0.0427 -0.9987 0.0285
vn 0.0427 -0.9987 -0.0285
vn 0.1567 -0.9821 -0.1047
vn -0.1417 -0.9821 0.1242
vn -0.0386 -0.9987 0.0339
vn 0.0386 -0.9987 -0.0339
vn 0.1417 -0.9821 -0.1242
vn -0.1242 -0.9821 0.1417
vn -0.0339 -0.9987 0.0386
vn 0.0339 -0.9987 -0.0386
vn 0.1242 -0.9821 -0.1417
vn -0.1047 -0.9821 0.1567
vn -0.0285 -0.9987 0.0427
vn 0.0285 -0.9987 -0.0427
vn 0.1047 -0.9821 -0.1567
vn -0.0833 -0.9821 0.1690
vn -0.0227 -0.9987 0.0460
vn 0.0227 -0.9987 -0.0460
vn 0.0833 -0.9821 -0.1690
vn -0.0606 -0.9821 0.1784
vn -0.0165 -0.9987 0.0486
vn 0.0165 -0.9987 -0.0486
vn 0.0606 -0.9821 -0.1784
vn -0.0368 -0.9821 0.1848
vn -0.0100 -0.9987 0.0504
vn 0.0100 -0.9987 -0.0504
vn 0.0368 -0.9821 -0.1848
vn -0.0123 -0.9821 0.1880
vn -0.0034 -0.9987 0.0512
vn 0.0034 -0.9987 -0.0512
vn 0.0123 -0.9821 -0.1880
vn 0.0123 -0.9821 0.1880
vn 0.0034 -0.9987 0.0512
vn -0.0034 -0.9987 -0.0512
vn -0.0123 -0.9821 -0.1880
vn 0.0368 -0.9821 0.1848
vn 0.0100 -0.9987 0.0504
vn -0.0100 -0.9987 -0.0504
vn -0.0368 -0.9821 -0.1848
vn 0.0606 -0.9821 0.1784
vn 0.0165 -0.9987 0.0486
vn -0.0165 -0.9987 -0.0486
vn -0.0606 -0.9821 -0.1784
vn 0.0833 -0.9821 0.1690
vn 0.0227 -0.9987 0.0460
vn -0.0227 -0.9987 -0.0460
vn -0.0833 -0.9821 -0.1690
vn 0.1047 -0.9821 0.1567
vn 0.0285 -0.9987 0.0427
vn -0.0285 -0.9987 -0.0427
vn -0.1047 -0.9821 -0.1567
vn 0.1242 -0.9821 0.1417
vn 0.0339 -0.9987 0.0386
vn -0.0339 -0.9987 -0.0386
vn -0.1242 -0.9821 -0.1417
vn 0.1417 -0.9821 0.1242
vn 0.0386 -0.9987 0.0339
vn -0.0386 -0.9987 -0.0339
vn -0.1417 -0.9821 -0.1242
vn 0.1567 -0.9821 0.1047
vn 0.0427 -0.9987 0.0285
vn -0.0427 -0.9987 -0.0285
vn -0.1567 -0.9821 -0.1047
vn 0.1690 -0.9821 0.0833
vn 0.0460 -0.9987 0.0227
vn -0.0460 -0.9987 -0.0227
vn -0.1690 -0.9821 -0.0833
vn 0.1784 -0.9821 0.0606
vn 0.0486 -0.9987 0.0165
vn -0.0486 -0.9987 -0.0165
vn -0.1784 -0.9821 -0.0606
vn 0.1848 -0.9821 0.0368
vn 0.0504 -0.9987 0.0100
vn -0.0504 -0.9987 -0.0100
vn -0.1848 -0.9821 -0.0368
vn 0.1880 -0.9821 0.0123
vn 0.0512 -0.9987 0.0034
vn -0.0512 -0.9987 -0.0034
vn -0.1880 -0.9821 -0.0123
vt 0.500000 0.083333
vt 0.520833 0.083333
vt 0.520833 0.166667
vt 0.500000 0.166667
vt 0.520833 0.250000
vt 0.500000 0.250000
vt 0.520833 0.333333
vt 0.500000 0.333333
vt 0.520833 0.416667
vt 0.500000 0.416667
vt 0.541667 0.083333
vt 0.541667 0.166667
vt 0.541667 0.250000
vt 0.541667 0.333333
vt 0.541667 0.416667
vt 0.562500 0.083333
vt 0.562500 0.166667
vt 0.562500 0.250000
vt 0.562500 0.333333
vt 0.562500 0.416667
vt 0.583333 0.083333
vt 0.583333 0.166667
vt 0.583333 0.250000
vt 0.583333 0.333333
vt 0.583333 0.416667
vt 0.604167 0.083333
vt 0.604167 0.166667
vt 0.604167 0.250000
vt 0.604167 0.333333
vt 0.604167 0.416667
vt 0.625000 0.083333
vt 0.625000 0.166667
vt 0.625000 0.250000
vt 0.625000 0.333333
vt 0.625000 0.416667
vt 0.645833 0.083333
vt 0.645833 0.166667
vt 0.645833 0.250000
vt 0.645833 0.333333
vt 0.645833 0.416667
vt 0.666667 0.083333
vt 0.666667 0.166667
vt 0.666667 0.250000
vt 0.666667 0.333333
vt 0.666667 0.416667
vt 0.687500 0.083333
vt 0.687500 0.166667
vt 0.687500 0.250000
vt 0.687500 0.333333
vt 0.687500 0.416667
vt 0.708333 0.083333
vt 0.708333 0.166667
vt 0.708333 0.250000
vt 0.708333 0.333333
vt 0.708333 0.416667
vt 0.729167 0.083333
vt 0.729167 0.166667
vt 0.729167 0.250000
vt 0.729167 0.333333
vt 0.729167 0.416667
vt 0.750000 0.083333
vt 0.750000 0.166667
vt 0.750000 0.250000
vt 0.750000 0.333333
vt 0.750000 0.416667
vt 0.770833 0.083333
vt 0.770833 0.166667
vt 0.770833 0.250000
vt 0.770833 0.333333
vt 0.770833 0.416667
vt 0.791667 0.083333
vt 0.791667 0.166667
vt 0.791667 0.250000
vt 0.791667 0.333333
vt 0.791667 0.416667
vt 0.812500 0.083333
vt 0.812500 0.166667
vt 0.812500 0.250000
vt 0.812500 0.333333
vt 0.812500 0.416667
vt 0.833333 0.083333
vt 0.833333 0.166667
vt 0.833333 0.250000
vt 0.833333 0.333333
vt 0.833333 0.416667
vt 0.854167 0.083333
vt 0.854167 0.166667
vt 0.854167 0.250000
vt 0.854167 0.333333
vt 0.854167 0.416667
vt 0.875000 0.083333
vt 0.875000 0.166667
vt 0.875000 0.250000
vt 0.875000 0.333333
vt 0.875000 0.416667
vt 0.895833 0.083333
vt 0.895833 0.166667
vt 0.895833 0.250000
vt 0.895833 0.333333
vt 0.895833 0.416667
vt 0.916667 0.083333
vt 0.916667 0.166667
vt 0.916667 0.250000
vt 0.916667 0.333333
vt 0.916667 0.416667
vt 0.937500 0.083333
vt 0.937500 0.166667
vt 0.937500 0.250000
vt 0.937500 0.333333
vt 0.937500 0.416667
vt 0.958333 0.083333
vt 0.958333 0.166667
vt 0.958333 0.250000
vt 0.958333 0.333333
vt 0.958333 0.416667
vt 0.979167 0.083333
vt 0.979167 0.166667
vt 0.979167 0.250000
vt 0.979167 0.333333
vt 0.979167 0.416667
vt 1.000000 0.083333
vt 1.000000 0.166667
vt 1.000000 0.250000
vt 1.000000 0.333333
vt 1.000000 0.416667
vt 0.000000 0.083333
vt 0.020833 0.083333
vt 0.020833 0.166667
vt 0.000000 0.166667
vt 0.020833 0.250000
vt 0.000000 0.250000
vt 0.020833 0.333333
vt 0.000000 0.333333
vt 0.020833 0.416667
vt 0.000000 0.416667
vt 0.041667 0.083333
vt 0.041667 0.166667
vt 0.041667 0.250000
vt 0.041667 0.333333
vt 0.041667 0.416667
vt 0.062500 0.083333
vt 0.062500 0.166667
vt 0.062500 0.250000
vt 0.062500 0.333333
vt 0.062500 0.416667
vt 0.083333 0.083333
vt 0.083333 0.166667
vt 0.083333 0.250000
vt 0.083333 0.333333
vt 0.083333 0.416667
vt 0.104167 0.083333
vt 0.104167 0.166667
vt 0.104167 0.250000
vt 0.104167 0.333333
vt 0.104167 0.416667
vt 0.125000 0.083333
vt 0.125000 0.166667
vt 0.125000 0.250000
vt 0.125000 0.333333
vt 0.125000 0.416667
vt 0.145833 0.083333
vt 0.145833 0.166667
vt 0.145833 0.250000
vt 0.145833 0.333333
vt 0.145833 0.416667
vt 0.166667 0.083333
vt 0.166667 0.166667
vt 0.166667 0.250000
vt 0.166667 0.333333
vt 0.166667 0.416667
vt 0.187500 0.083333
vt 0.187500 0.166667
vt 0.187500 0.250000
vt 0.187500 0.333333
vt 0.187500 0.416667
vt 0.208333 0.083333
vt 0.208333 0.166667
vt 0.208333 0.250000
vt 0.208333 0.333333
vt 0.208333 0.416667
vt 0.229167 0.083333
vt 0.229167 0.166667
vt 0.229167 0.250000
vt 0.229167 0.333333
vt 0.229167 0.416667
vt 0.250000 0.083333
vt 0.250000 0.166667
vt 0.250000 0.250000
vt 0.250000 0.333333
vt 0.250000 0.416667
vt 0.270833 0.083333
vt 0.270833 0.166667
vt 0.270833 0.250000
vt 0.270833 0.333333
vt 0.270833 0.416667
vt 0.291667 0.083333
vt 0.291667 0.166667
vt 0.291667 0.250000
vt 0.291667 0.333333
vt 0.291667 0.416667
vt 0.312500 0.083333
vt 0.312500 0.166667
vt 0.312500 0.250000
vt 0.312500 0.333333
vt 0.312500 0.416667
vt 0.333333 0.083333
vt 0.333333 0.166667
vt 0.333333 0.250000
vt 0.333333 0.333333
vt 0.333333 0.416667
vt 0.354167 0.083333
vt 0.354167 0.166667
vt 0.354167 0.250000
vt 0.354167 0.333333
vt 0.354167 0.416667
vt 0.375000 0.083333
vt 0.375000 0.166667
vt 0.375000 0.250000
vt 0.375000 0.333333
vt 0.375000 0.416667
vt 0.395833 0.083333
vt 0.395833 0.166667
vt 0.395833 0.250000
vt 0.395833 0.333333
vt 0.395833 0.416667
vt 0.416667 0.083333
vt 0.416667 0.166667
vt 0.416667 0.250000
vt 0.416667 0.333333
vt 0.416667 0.416667
vt 0.437500 0.083333
vt 0.437500 0.166667
vt 0.437500 0.250000
vt 0.437500 0.333333
vt 0.437500 0.416667
vt 0.458333 0.083333
vt 0.458333 0.166667
vt 0.458333 0.250000
vt 0.458333 0.333333
vt 0.458333 0.416667
vt 0.479167 0.083333
vt 0.479167 0.166667
vt 0.479167 0.250000
vt 0.479167 0.333333
vt 0.479167 0.416667
s 0
f 1/1/1 6/2/1 7/3/1 2/4/1
f 2/4/2 7/3/2 8/5/2 3/6/2
f 3/6/3 8/5/3 9/7/3 4/8/3
f 4/8/4 9/7/4 10/9/4 5/10/4
f 6/2/5 11/11/5 12/12/5 7/3/5
f 7/3/6 12/12/6 13/13/6 8/5/6
f 8/5/7 13/13/7 14/14/7 9/7/7
f 9/7/8 14/14/8 15/15/8 10/9/8
f 11/11/9 16/16/9 17/17/9 12/12/9
f 12/12/10 17/17/10 18/18/10 13/13/10
f 13/13/11 18/18/11 19/19/11 14/14/11
f 14/14/12 19/19/12 20/20/12 15/15/12
f 16/16/13 21/21/13 22/22/13 17/17/13
f 17/17/14 22/22/14 23/23/14 18/18/14
f 18/18/15 23/23/15 24/24/15 19/19/15
f 19/19/16 24/24/16 25/25/16 20/20/16
f 21/21/17 26/26/17 27/27/17 22/22/17
f 22/22/18 27/27/18 28/28/18 23/23/18
f 23/23/19 28/28/19 29/29/19 24/24/19
f 24/24/20 29/29/20 30/30/20 25/25/20
f 26/26/21 31/31/21 32/32/21 27/27/21
f 27/27/22 32/32/22 33/33/22 28/28/22
f 28/28/23 33/33/23 34/34/23 29/29/23
f 29/29/24 34/34/24 35/35/24 30/30/24
f 31/31/25 36/36/25 37/37/25 32/32/25
f 32/32/26 37/37/26 38/38/26 33/33/26
f 33/33/27 38/38/27 39/39/27 34/34/27
f 34/34/28 39/39/28 40/40/28 35/35/28
f 36/36/29 41/41/29 42/42/29 37/37/29
f 37/37/30 42/42/30 43/43/30 38/38/30
f 38/38/31 43/43/31 44/44/31 39/39/31
f 39/39/32 44/44/32 45/45/32 40/40/32
f 41/41/33 46/46/33 47/47/33 42/42/33
f 42/42/34 47/47/34 48/48/34 43/43/34
f 43/43/35 48/48/35 49/49/35 44/44/35
f 44/44/36 49/49/36 50/50/36 45/45/36
f 46/46/37 51/51/37 52/52/37 47/47/37
f 47/47/38 52/52/38 53/53/38 48/48/38
f 48/48/39 53/53/39 54/54/39 49/49/39
f 49/49/40 54/54/40 55/55/40 50/50/40
f 51/51/41 56/56/41 57/57/41 52/52/41
f 52/52/42 57/57/42 58/58/42 53/53/42
f 53/53/43 58/58/43 59/59/43 54/54/43
f 54/54/44 59/59/44 60/60/44 55/55/44
f 56/56/45 61/61/45 62/62/45 57/57/45
f 57/57/46 62/62/46 63/63/46 58/58/46
f 58/58/47 63/63/47 64/64/47 59/59/47
f 59/59/48 64/64/48 65/65/48 60/60/48
f 61/61/49 66/66/49 67/67/49 62/62/49
f 62/62/50 67/67/50 68/68/50 63/63/50
f 63/63/51 68/68/51 69/69/51 64/64/51
f 64/64/52 69/69/52 70/70/52 65/65/52
f 66/66/53 71/71/53 72/72/53 67/67/53
f 67/67/54 72/72/54 73/73/54 68/68/54
f 68/68/55 73/73/55 74/74/55 69/69/55
f 69/69/56 74/74/56 75/75/56 70/70/56
f 71/71/57 76/76/57 77/77/57 72/72/57
f 72/72/58 77/77/58 78/78/58 73/73/58
f 73/73/59 78/78/59 79/79/59 74/74/59
f 74/74/60 79/79/60 80/80/60 75/75/60
f 76/76/61 81/81/61 82/82/61 77/77/61
f 77/77/62 82/82/62 83/83/62 78/78/62
f 78/78/63 83/83/63 84/84/63 79/79/63
f 79/79/64 84/84/64 85/85/64 80/80/64
f 81/81/65 86/86/65 87/87/65 82/82/65
f 82/82/66 87/87/66 88/88/66 83/83/66
f 83/83/67 88/88/67 89/89/67 84/84/67
f 84/84/68 89/89/68 90/90/68 85/85/68
f 86/86/69 91/91/69 92/92/69 87/87/69
f 87/87/70 92/92/70 93/93/70 88/88/70
f 88/88/71 93/93/71 94/94/71 89/89/71
f 89/89/72 94/94/72 95/95/72 90/90/72
f 91/91/73 96/96/73 97/97/73 92/92/73
f 92/92/74 97/97/74 98/98/74 93/93/74
f 93/93/75 98/98/75 99/99/75 94/94/75
f 94/94/76 99/99/76 100/100/76 95/95/76
f 96/96/77 101/101/77 102/102/77 97/97/77
f 97/97/78 102/102/78 103/103/78 98/98/78
f 98/98/79 103/103/79 104/104/79 99/99/79
f 99/99/80 104/104/80 105/105/80 100/100/80
f 101/101/81 106/106/81 107/107/81 102/102/81
f 102/102/82 107/107/82 108/108/82 103/103/82
f 103/103/83 108/108/83 109/109/83 104/104/83
f 104/104/84 109/109/84 110/110/84 105/105/84
f 106/106/85 111/111/85 112/112/85 107/107/85
f 107/107/86 112/112/86 113/113/86 108/108/86
f 108/108/87 113/113/87 114/114/87 109/109/87
f 109/109/88 114/114/88 115/115/88 110/110/88
f 111/111/89 116/116/89 117/117/89 112/112/89
f 112/112/90 117/117/90 118/118/90 113/113/90
f 113/113/91 118/118/91 119/119/91 114/114/91
f 114/114/92 119/119/92 120/120/92 115/115/92
f 116/116/93 121/121/93 122/122/93 117/117/93
f 117/117/94 122/122/94 123/123/94 118/118/94
f 118/118/95 123/123/95 124/124/95 119/119/95
f 119/119/96 124/124/96 125/125/96 120/120/96
f 121/126/4 126/127/4 127/128/4 122/129/4
f 122/129/3 127/128/3 128/130/3 123/131/3
f 123/131/2 128/130/2 129/132/2 124/133/2
f 124/133/1 129/132/1 130/134/1 125/135/1
f 126/127/8 131/136/8 132/137/8 127/128/8
f 127/128/7 132/137/7 133/138/7 128/130/7
f 128/130/6 133/138/6 134/139/6 129/132/6
f 129/132/5 134/139/5 135/140/5 130/134/5
f 131/136/12 136/141/12 137/142/12 132/137/12
f 132/137/11 137/142/11 138/143/11 133/138/11
f 133/138/10 138/143/10 139/144/10 134/139/10
f 134/139/9 139/144/9 140/145/9 135/140/9
f 136/141/16 141/146/16 142/147/16 137/142/16
f 137/142/15 142/147/15 143/148/15 138/143/15
f 138/143/14 143/148/14 144/149/14 139/144/14
f 139/144/13 144/149/13 145/150/13 140/145/13
f 141/146/20 146/151/20 147/152/20 142/147/20
f 142/147/19 147/152/19 148/153/19 143/148/19
f 143/148/18 148/153/18 149/154/18 144/149/18
f 144/149/17 149/154/17 150/155/17 145/150/17
f 146/151/24 151/156/24 152/157/24 147/152/24
f 147/152/23 152/157/23 153/158/23 148/153/23
f 148/153/22 153/158/22 154/159/22 149/154/22
f 149/154/21 154/159/21 155/160/21 150/155/21
f 151/156/28 156/161/28 157/162/28 152/157/28
f 152/157/27 157/162/27 158/163/27 153/158/27
f 153/158/26 158/163/26 159/164/26 154/159/26
f 154/159/25 159/164/25 160/165/25 155/160/25
f 156/161/32 161/166/32 162/167/32 157/162/32
f 157/162/31 162/167/31 163/168/31 158/163/31
f 158/163/30 163/168/30 164/169/30 159/164/30
f 159/164/29 164/169/29 165/170/29 160/165/29
f 161/166/36 166/171/36 167/172/36 162/167/36
f 162/167/35 167/172/35 168/173/35 163/168/35
f 163/168/34 168/173/34 169/174/34 164/169/34
f 164/169/33 169/174/33 170/175/33 165/170/33
f 166/171/40 171/176/40 172/177/40 167/172/40
f 167/172/39 172/177/39 173/178/39 168/173/39
f 168/173/38 173/178/38 174/179/38 169/174/38
f 169/174/37 174/179/37 175/180/37 170/175/37
f 171/176/44 176/181/44 177/182/44 172/177/44
f 172/177/43 177/182/43 178/183/43 173/178/43
f 173/178/42 178/183/42 179/184/42 174/179/42
f 174/179/41 179/184/41 180/185/41 175/180/41
f 176/181/48 181/186/48 182/187/48 177/182/48
f 177/182/47 182/187/47 183/188/47 178/183/47
f 178/183/46 183/188/46 184/189/46 179/184/46
f 179/184/45 184/189/45 185/190/45 180/185/45
f 181/186/52 186/191/52 187/192/52 182/187/52
f 182/187/51 187/192/51 188/193/51 183/188/51
f 183/188/50 188/193/50 189/194/50 184/189/50
f 184/189/49 189/194/49 190/195/49 185/190/49
f 186/191/56 191/196/56 192/197/56 187/192/56
f 187/192/55 192/197/55 193/198/55 188/193/55
f 188/193/54 193/198/54 194/199/54 189/194/54
f 189/194/53 194/199/53 195/200/53 190/195/53
f 191/196/60 196/201/60 197/202/60 192/197/60
f 192/197/59 197/202/59 198/203/59 193/198/59
f 193/198/58 198/203/58 199/204/58 194/199/58
f 194/199/57 199/204/57 200/205/57 195/200/57
f 196/201/64 201/206/64 202/207/64 197/202/64
f 197/202/63 202/207/63 203/208/63 198/203/63
f 198/203/62 203/208/62 204/209/62 199/204/62
f 199/204/61 204/209/61 205/210/61 200/205/61
f 201/206/68 206/211/68 207/212/68 202/207/68
f 202/207/67 207/212/67 208/213/67 203/208/67
f 203/208/66 208/213/66 209/214/66 204/209/66
f 204/209/65 209/214/65 210/215/65 205/210/65
f 206/211/72 211/216/72 212/217/72 207/212/72
f 207/212/71 212/217/71 213/218/71 208/213/71
f 208/213/70 213/218/70 214/219/70 209/214/70
f 209/214/69 214/219/69 215/220/69 210/215/69
f 211/216/76 216/221/76 217/222/76 212/217/76
f 212/217/75 217/222/75 218/223/75 213/218/75
f 213/218/74 218/223/74 219/224/74 214/219/74
f 214/219/73 219/224/73 220/225/73 215/220/73
f 216/221/80 221/226/80 222/227/80 217/222/80
f 217/222/79 222/227/79 223/228/79 218/223/79
f 218/223/78 223/228/78 224/229/78 219/224/78
f 219/224/77 224/229/77 225/230/77 220/225/77
f 221/226/84 226/231/84 227/232/84 222/227/84
f 222/227/83 227/232/83 228/233/83 223/228/83
f 223/228/82 228/233/82 229/234/82 224/229/82
f 224/229/81 229/234/81 230/235/81 225/230/81
f 226/231/88 231/236/88 232/237/88 227/232/88
f 227/232/87 232/237/87 233/238/87 228/233/87
f 228/233/86 233/238/86 234/239/86 229/234/86
f 229/234/85 234/239/85 235/240/85 230/235/85
f 231/236/92 236/241/92 237/242/92 232/237/92
f 232/237/91 237/242/91 238/243/91 233/238/91
f 233/238/90 238/243/90 239/244/90 234/239/90
f 234/239/89 239/244/89 240/245/89 235/240/89
f 236/241/96 1/1/96 2/4/96 237/242/96
f 237/242/95 2/4/95 3/6/95 238/243/95
f 238/243/94 3/6/94 4/8/94 239/244/94
f 239/244/93 4/8/93 5/10/93 240/245/93
